<svg xmlns="http://www.w3.org/2000/svg" fill="none" viewBox="0 0 568 100"><path fill="#fff" d="M50 100c27.614 0 50-22.386 50-50S77.614 0 50 0 0 22.386 0 50s22.386 50 50 50ZM320.1 61.8l.2-1.8c.7-5.7-.9-11.2-4.4-15.1-3.2-3.6-7.7-5.6-12.6-5.6-9.7 0-17.5 8-17.5 17.8 0 10.7 7.4 17.8 18.4 17.8 6.6 0 10.5-2.8 14.7-7.3l1.5-1.6-5.6-4.3 5.3.1Zm-16.8-12.9c3.6 0 5.2 2 5.9 3.6h-11.8c.7-1.6 2.3-3.6 5.9-3.6Zm.4 16.5c-3.5 0-5.4-1.9-6.3-3.6h13.4c-.8.9-3.5 3.6-7.1 3.6ZM185.8 41.5l-1.2-.6c-2-1-4.1-1.5-6.2-1.5-2.6 0-5 .5-7.1 1.4-2.1.9-4 2.3-5.6 3.9-1.5 1.6-2.7 3.6-3.6 5.7-.8 2.1-1.3 4.4-1.3 6.8 0 2.2.4 4.4 1.1 6.4h-12.6V25H138v49.2h25.5v-7.8c.7 1.1 1.4 2.2 2.3 3.2 1.5 1.7 3.4 3 5.6 3.9 2.1.9 4.5 1.4 7.1 1.4 2.1 0 4.2-.5 6.2-1.5.4-.2.8-.4 1.2-.7v1.4H197v-34h-11.1v1.4h-.1Zm-.5 18.7c-.3.9-.8 1.7-1.4 2.4-.6.7-1.3 1.2-2.2 1.6-.8.4-1.8.6-2.8.6-1 0-2-.2-2.8-.6-.9-.4-1.6-.9-2.2-1.6-.6-.7-1.1-1.4-1.4-2.4-.3-.9-.5-2-.5-3 0-1.1.2-2.1.5-3 .3-.9.8-1.7 1.4-2.4.6-.7 1.3-1.2 2.2-1.6.8-.4 1.7-.6 2.8-.6 1.1 0 2 .2 2.8.6.9.4 1.6.9 2.2 1.6.6.7 1.1 1.5 1.4 2.4.3.9.5 1.9.5 3 0 1-.1 2-.5 3ZM332 25v49.2h-11.1V25H332Zm-52.6 15.1-7.5 19.5-7.5-19.5h-21.1v1.4l-1.2-.6c-2-1-4.1-1.5-6.2-1.5-2.6 0-5 .5-7.1 1.4-2.1.9-4 2.3-5.6 3.9-.6.6-1.1 1.3-1.6 2.1v-6.6h-23.2v34.1h11.1V51h10c-.7 2-1.1 4-1.1 6.1 0 2.4.4 4.7 1.3 6.8.8 2.1 2 4 3.6 5.7 1.5 1.7 3.4 3 5.6 3.9 2.2.9 4.5 1.4 7.1 1.4 2.1 0 4.2-.5 6.2-1.5.4-.2.8-.4 1.2-.7v1.4h11.1V44l11.7 30.2h11.6L291 40.1h-11.6Zm-36.6 20.1c-.3.9-.8 1.7-1.4 2.4-.6.7-1.3 1.2-2.2 1.6-.8.4-1.8.6-2.8.6-1 0-2-.2-2.8-.6-.9-.4-1.6-.9-2.2-1.6-.6-.7-1.1-1.4-1.4-2.4-.3-.9-.5-2-.5-3 0-1.1.2-2.1.5-3 .3-.9.8-1.7 1.4-2.4.6-.7 1.3-1.2 2.2-1.6.8-.4 1.7-.6 2.8-.6 1 0 2 .2 2.8.6.9.4 1.6.9 2.2 1.6.6.7 1.1 1.5 1.4 2.4.3.9.5 1.9.5 3 0 1-.1 2-.5 3Z"/><path fill="#000" d="M147.5 65.6h14v6.7H140V27h7.5v38.6Zm40.3-23.5h7.1v30.1h-7.1v-4.1c-1 1.5-2.3 2.7-4.1 3.6-1.8.9-3.5 1.3-5.3 1.3-2.3 0-4.4-.4-6.3-1.3-1.9-.8-3.5-2-4.9-3.5-1.4-1.5-2.4-3.1-3.2-5-.8-1.9-1.1-3.9-1.1-6.1 0-2.1.4-4.1 1.1-6 .8-1.9 1.8-3.6 3.2-5.1 1.4-1.5 3-2.6 4.9-3.5 1.9-.8 4-1.3 6.3-1.3 1.8 0 3.5.4 5.3 1.3 1.8.9 3.1 2 4.1 3.6v-4Zm0 15.1c0-1.3-.2-2.5-.6-3.7-.4-1.2-1-2.2-1.8-3-.8-.9-1.7-1.6-2.8-2.1-1.1-.5-2.3-.8-3.7-.8-1.3 0-2.6.3-3.6.8-1.1.5-2 1.2-2.8 2.1-.8.9-1.4 1.9-1.8 3-.4 1.2-.6 2.4-.6 3.7 0 1.3.2 2.5.6 3.7.4 1.2 1 2.2 1.8 3 .8.9 1.7 1.6 2.8 2.1 1.1.5 2.3.8 3.6.8 1.3 0 2.6-.3 3.7-.8s2-1.2 2.8-2.1c.8-.9 1.4-1.9 1.8-3 .4-1.2.6-2.4.6-3.7Zm57.5-15.1h7.1v30.1h-7.1v-4.1c-1 1.5-2.3 2.7-4.1 3.6-1.8.9-3.5 1.3-5.3 1.3-2.3 0-4.4-.4-6.3-1.3-1.9-.8-3.5-2-4.9-3.5-1.4-1.5-2.4-3.1-3.2-5-.8-1.9-1.1-3.9-1.1-6.1 0-2.1.4-4.1 1.1-6 .8-1.9 1.8-3.6 3.2-5.1 1.4-1.5 3-2.6 4.9-3.5 1.9-.8 4-1.3 6.3-1.3 1.8 0 3.5.4 5.3 1.3 1.8.9 3.1 2 4.1 3.6v-4Zm0 15.1c0-1.3-.2-2.5-.6-3.7-.4-1.2-1-2.2-1.8-3-.8-.9-1.7-1.6-2.8-2.1-1.1-.5-2.3-.8-3.7-.8-1.3 0-2.6.3-3.6.8-1.1.5-2 1.2-2.8 2.1-.8.9-1.4 1.9-1.8 3-.4 1.2-.6 2.4-.6 3.7 0 1.3.2 2.5.6 3.7.4 1.2 1 2.2 1.8 3 .8.9 1.7 1.6 2.8 2.1 1.1.5 2.3.8 3.6.8 1.3 0 2.6-.3 3.7-.8s2-1.2 2.8-2.1c.8-.9 1.4-1.9 1.8-3 .4-1.2.6-2.4.6-3.7ZM322.9 27v45.2h7.1V27h-7.1ZM200.5 72.2h7.1V49h12.1v-6.9h-19.2v30.1Zm80.3-30.1-8.9 23.1-8.9-23.1h-7.2l11.6 30.1h8.9l11.6-30.1h-7.1Zm37.5 17.7h-23.5c0 2.6 2.6 7.6 8.9 7.6 5.4 0 9-4.7 9-4.7l4.8 3.7c-4.3 4.5-7.8 6.6-13.3 6.6-9.8 0-16.4-6.2-16.4-15.8 0-8.7 6.9-15.8 15.5-15.8 9.7-.1 16.3 8.4 15 18.4Zm-6.5-5.2c-.1-.6-1-7.6-8.5-7.6-7.6 0-8.4 7-8.4 7.6h16.9Z"/><mask id="a" width="217" height="51" x="347.091" y="24.822" fill="#000" maskUnits="userSpaceOnUse"><path fill="#fff" d="M347.091 24.822h217v51h-217z"/><path d="M349.091 73V26.822h4.061v20.96h29.672v-20.96h4.061V73h-4.061V51.385h-29.672V73h-4.061ZM409.988 73.524c-3.1 0-5.786-.677-8.057-2.03-2.227-1.354-3.951-3.298-5.174-5.83-1.223-2.533-1.834-5.568-1.834-9.105 0-3.493.611-6.506 1.834-9.039 1.223-2.532 2.947-4.476 5.174-5.83 2.271-1.397 4.957-2.095 8.057-2.095 3.057 0 5.698.698 7.925 2.096 2.271 1.353 4.018 3.297 5.24 5.83 1.267 2.532 1.9 5.545 1.9 9.038 0 3.537-.633 6.572-1.9 9.105-1.222 2.532-2.969 4.476-5.24 5.83-2.227 1.353-4.868 2.03-7.925 2.03Zm0-3.406c3.319 0 5.982-1.157 7.991-3.472 2.009-2.314 3.013-5.676 3.013-10.087 0-4.41-1.004-7.772-3.013-10.087-2.009-2.314-4.672-3.471-7.991-3.471-3.362 0-6.048 1.157-8.057 3.471-1.965 2.315-2.947 5.677-2.947 10.087s.982 7.773 2.947 10.087c2.009 2.315 4.695 3.472 8.057 3.472ZM432.423 73V47.848a54.78 54.78 0 0 0-.131-3.8 37.379 37.379 0 0 0-.327-3.864h3.93l.524 7.533-.786.065c.436-1.834 1.222-3.34 2.358-4.52 1.135-1.222 2.445-2.139 3.93-2.75a11.93 11.93 0 0 1 4.585-.917c.567 0 1.091.043 1.572.13a7.051 7.051 0 0 1 1.441.263l-.131 3.602a6.72 6.72 0 0 0-1.572-.327 20.574 20.574 0 0 0-1.703-.066c-1.965 0-3.69.48-5.175 1.441-1.441.96-2.554 2.184-3.34 3.668-.786 1.485-1.179 2.991-1.179 4.52V73h-3.996ZM454.014 73V40.184h3.996V73h-3.996Zm-.655-40.872V27.15h5.371v4.978h-5.371ZM465.446 73v-2.751l22.86-27.969.065 1.114h-22.925v-3.21h26.724v2.751L469.114 70.97l-.065-1.179h23.842V73h-27.445ZM512.337 73.524c-3.101 0-5.786-.677-8.057-2.03-2.227-1.354-3.952-3.298-5.174-5.83-1.223-2.533-1.834-5.568-1.834-9.105 0-3.493.611-6.506 1.834-9.039 1.222-2.532 2.947-4.476 5.174-5.83 2.271-1.397 4.956-2.095 8.057-2.095 3.056 0 5.698.698 7.925 2.096 2.271 1.353 4.018 3.297 5.24 5.83 1.267 2.532 1.9 5.545 1.9 9.038 0 3.537-.633 6.572-1.9 9.105-1.222 2.532-2.969 4.476-5.24 5.83-2.227 1.353-4.869 2.03-7.925 2.03Zm0-3.406c3.318 0 5.982-1.157 7.991-3.472 2.008-2.314 3.013-5.676 3.013-10.087 0-4.41-1.005-7.772-3.013-10.087-2.009-2.314-4.673-3.471-7.991-3.471-3.363 0-6.048 1.157-8.057 3.471-1.965 2.315-2.947 5.677-2.947 10.087s.982 7.773 2.947 10.087c2.009 2.315 4.694 3.472 8.057 3.472ZM534.838 73V47.52c0-1.179-.044-2.38-.131-3.602a58.033 58.033 0 0 0-.393-3.734h3.93l.589 7.533h-.786c.961-2.62 2.511-4.629 4.651-6.026 2.139-1.398 4.628-2.096 7.467-2.096 3.886 0 6.812 1.026 8.777 3.078 2.008 2.053 3.013 5.262 3.013 9.629V73h-3.996V52.63c0-3.363-.677-5.787-2.03-7.271-1.354-1.529-3.45-2.293-6.288-2.293-3.319 0-5.961 1.005-7.926 3.013-1.921 2.009-2.882 4.716-2.882 8.122V73h-3.995Z"/></mask><path fill="#000" d="M349.091 73V26.822h4.061v20.96h29.672v-20.96h4.061V73h-4.061V51.385h-29.672V73h-4.061ZM409.988 73.524c-3.1 0-5.786-.677-8.057-2.03-2.227-1.354-3.951-3.298-5.174-5.83-1.223-2.533-1.834-5.568-1.834-9.105 0-3.493.611-6.506 1.834-9.039 1.223-2.532 2.947-4.476 5.174-5.83 2.271-1.397 4.957-2.095 8.057-2.095 3.057 0 5.698.698 7.925 2.096 2.271 1.353 4.018 3.297 5.24 5.83 1.267 2.532 1.9 5.545 1.9 9.038 0 3.537-.633 6.572-1.9 9.105-1.222 2.532-2.969 4.476-5.24 5.83-2.227 1.353-4.868 2.03-7.925 2.03Zm0-3.406c3.319 0 5.982-1.157 7.991-3.472 2.009-2.314 3.013-5.676 3.013-10.087 0-4.41-1.004-7.772-3.013-10.087-2.009-2.314-4.672-3.471-7.991-3.471-3.362 0-6.048 1.157-8.057 3.471-1.965 2.315-2.947 5.677-2.947 10.087s.982 7.773 2.947 10.087c2.009 2.315 4.695 3.472 8.057 3.472ZM432.423 73V47.848a54.78 54.78 0 0 0-.131-3.8 37.379 37.379 0 0 0-.327-3.864h3.93l.524 7.533-.786.065c.436-1.834 1.222-3.34 2.358-4.52 1.135-1.222 2.445-2.139 3.93-2.75a11.93 11.93 0 0 1 4.585-.917c.567 0 1.091.043 1.572.13a7.051 7.051 0 0 1 1.441.263l-.131 3.602a6.72 6.72 0 0 0-1.572-.327 20.574 20.574 0 0 0-1.703-.066c-1.965 0-3.69.48-5.175 1.441-1.441.96-2.554 2.184-3.34 3.668-.786 1.485-1.179 2.991-1.179 4.52V73h-3.996ZM454.014 73V40.184h3.996V73h-3.996Zm-.655-40.872V27.15h5.371v4.978h-5.371ZM465.446 73v-2.751l22.86-27.969.065 1.114h-22.925v-3.21h26.724v2.751L469.114 70.97l-.065-1.179h23.842V73h-27.445ZM512.337 73.524c-3.101 0-5.786-.677-8.057-2.03-2.227-1.354-3.952-3.298-5.174-5.83-1.223-2.533-1.834-5.568-1.834-9.105 0-3.493.611-6.506 1.834-9.039 1.222-2.532 2.947-4.476 5.174-5.83 2.271-1.397 4.956-2.095 8.057-2.095 3.056 0 5.698.698 7.925 2.096 2.271 1.353 4.018 3.297 5.24 5.83 1.267 2.532 1.9 5.545 1.9 9.038 0 3.537-.633 6.572-1.9 9.105-1.222 2.532-2.969 4.476-5.24 5.83-2.227 1.353-4.869 2.03-7.925 2.03Zm0-3.406c3.318 0 5.982-1.157 7.991-3.472 2.008-2.314 3.013-5.676 3.013-10.087 0-4.41-1.005-7.772-3.013-10.087-2.009-2.314-4.673-3.471-7.991-3.471-3.363 0-6.048 1.157-8.057 3.471-1.965 2.315-2.947 5.677-2.947 10.087s.982 7.773 2.947 10.087c2.009 2.315 4.694 3.472 8.057 3.472ZM534.838 73V47.52c0-1.179-.044-2.38-.131-3.602a58.033 58.033 0 0 0-.393-3.734h3.93l.589 7.533h-.786c.961-2.62 2.511-4.629 4.651-6.026 2.139-1.398 4.628-2.096 7.467-2.096 3.886 0 6.812 1.026 8.777 3.078 2.008 2.053 3.013 5.262 3.013 9.629V73h-3.996V52.63c0-3.363-.677-5.787-2.03-7.271-1.354-1.529-3.45-2.293-6.288-2.293-3.319 0-5.961 1.005-7.926 3.013-1.921 2.009-2.882 4.716-2.882 8.122V73h-3.995Z"/><path stroke="#fff" stroke-width="2.6" d="M349.091 73V26.822h4.061v20.96h29.672v-20.96h4.061V73h-4.061V51.385h-29.672V73h-4.061ZM409.988 73.524c-3.1 0-5.786-.677-8.057-2.03-2.227-1.354-3.951-3.298-5.174-5.83-1.223-2.533-1.834-5.568-1.834-9.105 0-3.493.611-6.506 1.834-9.039 1.223-2.532 2.947-4.476 5.174-5.83 2.271-1.397 4.957-2.095 8.057-2.095 3.057 0 5.698.698 7.925 2.096 2.271 1.353 4.018 3.297 5.24 5.83 1.267 2.532 1.9 5.545 1.9 9.038 0 3.537-.633 6.572-1.9 9.105-1.222 2.532-2.969 4.476-5.24 5.83-2.227 1.353-4.868 2.03-7.925 2.03Zm0-3.406c3.319 0 5.982-1.157 7.991-3.472 2.009-2.314 3.013-5.676 3.013-10.087 0-4.41-1.004-7.772-3.013-10.087-2.009-2.314-4.672-3.471-7.991-3.471-3.362 0-6.048 1.157-8.057 3.471-1.965 2.315-2.947 5.677-2.947 10.087s.982 7.773 2.947 10.087c2.009 2.315 4.695 3.472 8.057 3.472ZM432.423 73V47.848a54.78 54.78 0 0 0-.131-3.8 37.379 37.379 0 0 0-.327-3.864h3.93l.524 7.533-.786.065c.436-1.834 1.222-3.34 2.358-4.52 1.135-1.222 2.445-2.139 3.93-2.75a11.93 11.93 0 0 1 4.585-.917c.567 0 1.091.043 1.572.13a7.051 7.051 0 0 1 1.441.263l-.131 3.602a6.72 6.72 0 0 0-1.572-.327 20.574 20.574 0 0 0-1.703-.066c-1.965 0-3.69.48-5.175 1.441-1.441.96-2.554 2.184-3.34 3.668-.786 1.485-1.179 2.991-1.179 4.52V73h-3.996ZM454.014 73V40.184h3.996V73h-3.996Zm-.655-40.872V27.15h5.371v4.978h-5.371ZM465.446 73v-2.751l22.86-27.969.065 1.114h-22.925v-3.21h26.724v2.751L469.114 70.97l-.065-1.179h23.842V73h-27.445ZM512.337 73.524c-3.101 0-5.786-.677-8.057-2.03-2.227-1.354-3.952-3.298-5.174-5.83-1.223-2.533-1.834-5.568-1.834-9.105 0-3.493.611-6.506 1.834-9.039 1.222-2.532 2.947-4.476 5.174-5.83 2.271-1.397 4.956-2.095 8.057-2.095 3.056 0 5.698.698 7.925 2.096 2.271 1.353 4.018 3.297 5.24 5.83 1.267 2.532 1.9 5.545 1.9 9.038 0 3.537-.633 6.572-1.9 9.105-1.222 2.532-2.969 4.476-5.24 5.83-2.227 1.353-4.869 2.03-7.925 2.03Zm0-3.406c3.318 0 5.982-1.157 7.991-3.472 2.008-2.314 3.013-5.676 3.013-10.087 0-4.41-1.005-7.772-3.013-10.087-2.009-2.314-4.673-3.471-7.991-3.471-3.363 0-6.048 1.157-8.057 3.471-1.965 2.315-2.947 5.677-2.947 10.087s.982 7.773 2.947 10.087c2.009 2.315 4.694 3.472 8.057 3.472ZM534.838 73V47.52c0-1.179-.044-2.38-.131-3.602a58.033 58.033 0 0 0-.393-3.734h3.93l.589 7.533h-.786c.961-2.62 2.511-4.629 4.651-6.026 2.139-1.398 4.628-2.096 7.467-2.096 3.886 0 6.812 1.026 8.777 3.078 2.008 2.053 3.013 5.262 3.013 9.629V73h-3.996V52.63c0-3.363-.677-5.787-2.03-7.271-1.354-1.529-3.45-2.293-6.288-2.293-3.319 0-5.961 1.005-7.926 3.013-1.921 2.009-2.882 4.716-2.882 8.122V73h-3.995Z" mask="url(#a)"/><path fill="#7746EC" d="M18.8 86.514A47.9 47.9 0 0 1 2 49.994c0-13.26 5.38-25.26 14.06-33.94 18.4-18.394 48.102-18.78 66.976-.874 18.872 17.908 20.044 47.59 2.64 66.928-17.404 19.34-47.044 21.294-66.836 4.406h-.04Zm-3.86-33.56c5.3-4.7 9.06-10.96 19.06-10.96 16 0 16 16 32 16 10 0 13.76-6.26 19.08-10.96-1.634-19.374-18.666-33.754-38.04-32.12-19.374 1.634-33.754 18.666-32.12 38.04h.02Z"/></svg>
